<mxfile host="app.diagrams.net" modified="2023-04-26T05:21:33.620Z" agent="Mozilla/5.0 (Windows NT 10.0; Win64; x64) AppleWebKit/537.36 (KHTML, like Gecko) Chrome/112.0.0.0 Safari/537.36" etag="7u7GVbuuW5lhZ0HX5a6P" version="21.2.2" type="github">
  <diagram id="FynAF6712mWn7e7LtK_c" name="Page-1">
    <mxGraphModel dx="1434" dy="760" grid="1" gridSize="10" guides="1" tooltips="1" connect="1" arrows="1" fold="1" page="1" pageScale="1" pageWidth="850" pageHeight="1100" math="0" shadow="0">
      <root>
        <mxCell id="0" />
        <mxCell id="1" parent="0" />
        <mxCell id="YDPxqVyPuuDmGZl12sw5-1" value="" style="sketch=0;aspect=fixed;html=1;points=[];align=center;image;fontSize=12;image=img/lib/mscae/Clock.svg;" parent="1" vertex="1">
          <mxGeometry x="140" y="310" width="50" height="50" as="geometry" />
        </mxCell>
        <mxCell id="YDPxqVyPuuDmGZl12sw5-2" value="" style="sketch=0;aspect=fixed;html=1;points=[];align=center;image;fontSize=12;image=img/lib/mscae/Clock.svg;" parent="1" vertex="1">
          <mxGeometry x="140" y="70" width="50" height="50" as="geometry" />
        </mxCell>
        <mxCell id="YDPxqVyPuuDmGZl12sw5-3" value="" style="sketch=0;aspect=fixed;html=1;points=[];align=center;image;fontSize=12;image=img/lib/mscae/Clock.svg;" parent="1" vertex="1">
          <mxGeometry x="140" y="180" width="50" height="50" as="geometry" />
        </mxCell>
        <mxCell id="3kTfgfiQJ7Yrveuuf-5Y-4" style="edgeStyle=orthogonalEdgeStyle;rounded=0;orthogonalLoop=1;jettySize=auto;html=1;" edge="1" parent="1" source="YDPxqVyPuuDmGZl12sw5-4">
          <mxGeometry relative="1" as="geometry">
            <mxPoint x="360" y="95" as="targetPoint" />
          </mxGeometry>
        </mxCell>
        <mxCell id="YDPxqVyPuuDmGZl12sw5-4" value="1" style="text;html=1;align=center;verticalAlign=middle;resizable=0;points=[];autosize=1;strokeColor=none;fillColor=none;fontSize=20;" parent="1" vertex="1">
          <mxGeometry x="246" y="75" width="30" height="40" as="geometry" />
        </mxCell>
        <mxCell id="3kTfgfiQJ7Yrveuuf-5Y-5" style="edgeStyle=orthogonalEdgeStyle;rounded=0;orthogonalLoop=1;jettySize=auto;html=1;entryX=0;entryY=0.5;entryDx=0;entryDy=0;entryPerimeter=0;" edge="1" parent="1" source="YDPxqVyPuuDmGZl12sw5-5" target="YDPxqVyPuuDmGZl12sw5-6">
          <mxGeometry relative="1" as="geometry" />
        </mxCell>
        <mxCell id="YDPxqVyPuuDmGZl12sw5-5" value="2" style="text;html=1;align=center;verticalAlign=middle;resizable=0;points=[];autosize=1;strokeColor=none;fillColor=none;fontSize=20;" parent="1" vertex="1">
          <mxGeometry x="370" y="75" width="30" height="40" as="geometry" />
        </mxCell>
        <mxCell id="3kTfgfiQJ7Yrveuuf-5Y-6" style="edgeStyle=orthogonalEdgeStyle;rounded=0;orthogonalLoop=1;jettySize=auto;html=1;" edge="1" parent="1" source="YDPxqVyPuuDmGZl12sw5-6">
          <mxGeometry relative="1" as="geometry">
            <mxPoint x="640" y="95" as="targetPoint" />
          </mxGeometry>
        </mxCell>
        <mxCell id="3kTfgfiQJ7Yrveuuf-5Y-13" style="orthogonalLoop=1;jettySize=auto;html=1;elbow=vertical;" edge="1" parent="1" source="YDPxqVyPuuDmGZl12sw5-6" target="YDPxqVyPuuDmGZl12sw5-11">
          <mxGeometry relative="1" as="geometry" />
        </mxCell>
        <mxCell id="YDPxqVyPuuDmGZl12sw5-6" value="3" style="text;html=1;align=center;verticalAlign=middle;resizable=0;points=[];autosize=1;strokeColor=none;fillColor=none;fontSize=20;" parent="1" vertex="1">
          <mxGeometry x="510" y="75" width="30" height="40" as="geometry" />
        </mxCell>
        <mxCell id="3kTfgfiQJ7Yrveuuf-5Y-12" style="edgeStyle=orthogonalEdgeStyle;rounded=0;orthogonalLoop=1;jettySize=auto;html=1;" edge="1" parent="1" source="YDPxqVyPuuDmGZl12sw5-7">
          <mxGeometry relative="1" as="geometry">
            <mxPoint x="760" y="100" as="targetPoint" />
          </mxGeometry>
        </mxCell>
        <mxCell id="3kTfgfiQJ7Yrveuuf-5Y-21" style="rounded=0;orthogonalLoop=1;jettySize=auto;html=1;" edge="1" parent="1" source="YDPxqVyPuuDmGZl12sw5-7" target="YDPxqVyPuuDmGZl12sw5-13">
          <mxGeometry relative="1" as="geometry" />
        </mxCell>
        <mxCell id="YDPxqVyPuuDmGZl12sw5-7" value="4" style="text;html=1;align=center;verticalAlign=middle;resizable=0;points=[];autosize=1;strokeColor=none;fillColor=none;fontSize=20;" parent="1" vertex="1">
          <mxGeometry x="650" y="80" width="30" height="40" as="geometry" />
        </mxCell>
        <mxCell id="3kTfgfiQJ7Yrveuuf-5Y-7" style="edgeStyle=orthogonalEdgeStyle;rounded=0;orthogonalLoop=1;jettySize=auto;html=1;" edge="1" parent="1" source="YDPxqVyPuuDmGZl12sw5-9">
          <mxGeometry relative="1" as="geometry">
            <mxPoint x="360" y="200" as="targetPoint" />
          </mxGeometry>
        </mxCell>
        <mxCell id="YDPxqVyPuuDmGZl12sw5-9" value="1&amp;nbsp;" style="text;html=1;align=center;verticalAlign=middle;resizable=0;points=[];autosize=1;strokeColor=none;fillColor=none;fontSize=20;" parent="1" vertex="1">
          <mxGeometry x="245" y="180" width="40" height="40" as="geometry" />
        </mxCell>
        <mxCell id="3kTfgfiQJ7Yrveuuf-5Y-8" style="edgeStyle=orthogonalEdgeStyle;rounded=0;orthogonalLoop=1;jettySize=auto;html=1;" edge="1" parent="1" source="YDPxqVyPuuDmGZl12sw5-11">
          <mxGeometry relative="1" as="geometry">
            <mxPoint x="500" y="200" as="targetPoint" />
          </mxGeometry>
        </mxCell>
        <mxCell id="3kTfgfiQJ7Yrveuuf-5Y-15" style="orthogonalLoop=1;jettySize=auto;html=1;entryX=0.725;entryY=0.025;entryDx=0;entryDy=0;entryPerimeter=0;elbow=vertical;" edge="1" parent="1" source="YDPxqVyPuuDmGZl12sw5-11" target="YDPxqVyPuuDmGZl12sw5-16">
          <mxGeometry relative="1" as="geometry" />
        </mxCell>
        <mxCell id="YDPxqVyPuuDmGZl12sw5-11" value="2&amp;nbsp;&amp;nbsp;" style="text;html=1;align=center;verticalAlign=middle;resizable=0;points=[];autosize=1;strokeColor=none;fillColor=none;fontSize=20;" parent="1" vertex="1">
          <mxGeometry x="370" y="180" width="50" height="40" as="geometry" />
        </mxCell>
        <mxCell id="3kTfgfiQJ7Yrveuuf-5Y-9" style="edgeStyle=orthogonalEdgeStyle;rounded=0;orthogonalLoop=1;jettySize=auto;html=1;" edge="1" parent="1" source="YDPxqVyPuuDmGZl12sw5-13">
          <mxGeometry relative="1" as="geometry">
            <mxPoint x="640" y="200" as="targetPoint" />
          </mxGeometry>
        </mxCell>
        <mxCell id="YDPxqVyPuuDmGZl12sw5-13" value="3" style="text;html=1;align=center;verticalAlign=middle;resizable=0;points=[];autosize=1;strokeColor=none;fillColor=none;fontSize=20;" parent="1" vertex="1">
          <mxGeometry x="510" y="180" width="30" height="40" as="geometry" />
        </mxCell>
        <mxCell id="3kTfgfiQJ7Yrveuuf-5Y-18" style="orthogonalLoop=1;jettySize=auto;html=1;elbow=vertical;exitX=0.333;exitY=1;exitDx=0;exitDy=0;exitPerimeter=0;" edge="1" parent="1" source="YDPxqVyPuuDmGZl12sw5-13" target="YDPxqVyPuuDmGZl12sw5-17">
          <mxGeometry relative="1" as="geometry" />
        </mxCell>
        <mxCell id="YDPxqVyPuuDmGZl12sw5-14" value="4&amp;nbsp;" style="text;html=1;align=center;verticalAlign=middle;resizable=0;points=[];autosize=1;strokeColor=none;fillColor=none;fontSize=20;" parent="1" vertex="1">
          <mxGeometry x="645" y="180" width="40" height="40" as="geometry" />
        </mxCell>
        <mxCell id="3kTfgfiQJ7Yrveuuf-5Y-10" style="edgeStyle=orthogonalEdgeStyle;rounded=0;orthogonalLoop=1;jettySize=auto;html=1;" edge="1" parent="1" source="YDPxqVyPuuDmGZl12sw5-16">
          <mxGeometry relative="1" as="geometry">
            <mxPoint x="370" y="335" as="targetPoint" />
          </mxGeometry>
        </mxCell>
        <mxCell id="YDPxqVyPuuDmGZl12sw5-16" value="1&amp;nbsp;" style="text;html=1;align=center;verticalAlign=middle;resizable=0;points=[];autosize=1;strokeColor=none;fillColor=none;fontSize=20;" parent="1" vertex="1">
          <mxGeometry x="241" y="315" width="40" height="40" as="geometry" />
        </mxCell>
        <mxCell id="YDPxqVyPuuDmGZl12sw5-17" value="2" style="text;html=1;align=center;verticalAlign=middle;resizable=0;points=[];autosize=1;strokeColor=none;fillColor=none;fontSize=20;" parent="1" vertex="1">
          <mxGeometry x="370" y="320" width="30" height="40" as="geometry" />
        </mxCell>
        <mxCell id="3kTfgfiQJ7Yrveuuf-5Y-11" value="5" style="text;html=1;align=center;verticalAlign=middle;resizable=0;points=[];autosize=1;strokeColor=none;fillColor=none;fontSize=20;" vertex="1" parent="1">
          <mxGeometry x="770" y="75" width="30" height="40" as="geometry" />
        </mxCell>
      </root>
    </mxGraphModel>
  </diagram>
</mxfile>
